# xmcd
#
# Track frame offsets:
#	150
#	20213
#	40678
#	57505
#	80299
#	98123
#	117129
#	135262
#	155111
#	177847
#	193323
#	214536
#	235741
#	253391
#	276605
#	294583
#	313045
#
# Disc length: 4413 seconds
#
# Revision: 1
# Processed by: cddbd v1.4PL0 Copyright (c) Steve Scherf et al.
# Submitted via: audiograbber 1.80
#
DISCID=fd113b11
DTITLE=The Best Of Ballads Hits - Ballads Hits
DYEAR=1900
DGENRE=
TTITLE0=Enrique Iglesias - Hero
TTITLE1=Backstreet Boys - Drowing
TTITLE2=Faith Hill - There You'll Be
TTITLE3=Michael Jackson - Cry
TTITLE4=Whithey Houston - Could I Have This Kiss Forever
TTITLE5=Cher and Eros Ramazotti - Piu Che Puoi
TTITLE6=Ricky Martin Feat Maya - Private Emotion
TTITLE7=Aerosmith - Fly Away From Here
TTITLE8=Robbie Williams - Eternity
TTITLE9=Craig David - Walking Away
TTITLE10=Sting - Shape Of My Heart
TTITLE11=Eros Ramazzotti - Un Agelo Non E
TTITLE12=Britney Spears - I'm Not A Girl...
TTITLE13=Bon Jovi - Thank You
TTITLE14=Christina Aguilera - I Turn To You
TTITLE15=Rexette - Milk And Toast And Honey
TTITLE16=Marry J Blidge - Give Me You
EXTD=
EXTT0=
EXTT1=
EXTT2=
EXTT3=
EXTT4=
EXTT5=
EXTT6=
EXTT7=
EXTT8=
EXTT9=
EXTT10=
EXTT11=
EXTT12=
EXTT13=
EXTT14=
EXTT15=
EXTT16=
PLAYORDER=
